<svg width="18" height="18" viewBox="0 0 18 18" fill="none" xmlns="http://www.w3.org/2000/svg">
<path fill-rule="evenodd" clip-rule="evenodd" d="M1.70711 0.292893C1.31658 -0.0976311 0.683418 -0.0976311 0.292893 0.292893C-0.0976311 0.683418 -0.0976311 1.31658 0.292893 1.70711L7.58802 9.00223L0.29296 16.2973C-0.0975635 16.6878 -0.0975639 17.321 0.29296 17.7115C0.683485 18.102 1.31665 18.102 1.70717 17.7115L9.00223 10.4164L16.2973 17.7115C16.6878 18.102 17.321 18.102 17.7115 17.7115C18.102 17.321 18.102 16.6878 17.7115 16.2973L10.4164 9.00223L17.7116 1.70711C18.1021 1.31658 18.1021 0.683418 17.7116 0.292893C17.321 -0.097631 16.6879 -0.0976311 16.2974 0.292893L9.00223 7.58802L1.70711 0.292893Z" fill="url(#paint0_linear_1086_2911)"/>
<defs>
<linearGradient id="paint0_linear_1086_2911" x1="0" y1="18.0044" x2="19.1484" y2="16.4901" gradientUnits="userSpaceOnUse">
<stop stop-color="#111"/>
<stop offset="1" stop-color="#111"/>
</linearGradient>
</defs>
</svg>
